####
#
# OBJ File Generated by Meshlab
#
####
# Object piso.obj
#
# Vertices: 25
# Faces: 32
#
####
mtllib piso.mtl

vn 0.000000 0.000000 1.000000
v -60.400799 18.949930 -29.571699 0.752941 0.752941 0.752941
vn 0.000000 0.000000 1.000000
v -41.650799 18.663031 -29.571699 0.752941 0.752941 0.752941
vn 0.000000 0.000000 1.000000
v -60.400799 37.408051 -29.571699 0.752941 0.752941 0.752941
vn 0.000000 0.000000 1.000000
v 14.599200 75.441704 -29.571699 0.752941 0.752941 0.752941
vn 0.000000 0.000000 1.000000
v -4.150800 56.137981 -29.571699 0.752941 0.752941 0.752941
vn 0.000000 0.000000 1.000000
v 14.599200 56.417332 -29.571699 0.752941 0.752941 0.752941
vn 0.000000 0.000000 1.000000
v -4.150800 37.113602 -29.571699 0.752941 0.752941 0.752941
vn 0.000000 0.000000 1.000000
v 14.599200 37.392948 -29.571699 0.752941 0.752941 0.752941
vn 0.000000 0.000000 1.000000
v -41.650799 55.579281 -29.571699 0.752941 0.752941 0.752941
vn 0.000000 0.000000 1.000000
v -22.900801 74.883003 -29.571699 0.752941 0.752941 0.752941
vn 0.000000 0.000000 1.000000
v -41.650799 74.603653 -29.571699 0.752941 0.752941 0.752941
vn 0.000000 0.000000 1.000000
v -60.400799 55.866180 -29.571699 0.752941 0.752941 0.752941
vn 0.000000 0.000000 1.000000
v -60.400799 74.324303 -29.571699 0.752941 0.752941 0.752941
vn 0.000000 0.000000 1.000000
v -4.150800 75.162354 -29.571699 0.752941 0.752941 0.752941
vn 0.000000 0.000000 1.000000
v -22.900801 55.858631 -29.571699 0.752941 0.752941 0.752941
vn 0.000000 0.000000 1.000000
v -60.400799 0.491810 -29.571699 0.752941 0.752941 0.752941
vn 0.000000 0.000000 1.000000
v -22.900801 18.376120 -29.571699 0.752941 0.752941 0.752941
vn 0.000000 0.000000 1.000000
v -22.900801 -0.082000 -29.571699 0.752941 0.752941 0.752941
vn 0.000000 0.000000 1.000000
v -4.150800 18.089220 -29.571699 0.752941 0.752941 0.752941
vn 0.000000 0.000000 1.000000
v 14.599200 18.368570 -29.571699 0.752941 0.752941 0.752941
vn 0.000000 0.000000 1.000000
v -41.650799 37.121151 -29.571699 0.752941 0.752941 0.752941
vn 0.000000 0.000000 1.000000
v -41.650799 0.204900 -29.571699 0.752941 0.752941 0.752941
vn 0.000000 0.000000 1.000000
v -22.900801 36.834251 -29.571699 0.752941 0.752941 0.752941
vn 0.000000 0.000000 1.000000
v 14.599200 -0.655800 -29.571699 0.752941 0.752941 0.752941
vn 0.000000 0.000000 1.000000
v -4.150800 -0.368900 -29.571699 0.752941 0.752941 0.752941
# 25 vertices, 0 vertices normals

usemtl material_0
vt -3.013160 -1.227820
vt -1.256580 -1.254700
vt -3.013160 0.501420
f 1/1/1 2/2/2 3/3/3
vt 4.013160 4.064570
vt 2.256580 2.256110
vt 4.013160 2.282280
f 4/4/4 5/5/5 6/6/6
vt 2.256580 0.473830
vt 4.013160 0.500000
f 7/7/7 8/8/8 5/5/5
vt -1.256580 2.203770
vt 0.500000 4.012230
vt -1.256580 3.986060
f 9/9/9 10/10/10 11/11/11
vt -3.013160 2.230650
vt -3.013160 3.959890
f 12/12/12 9/9/9 13/13/13
vt 2.256580 4.038400
f 5/5/5 4/4/4 14/14/14
vt 0.500000 2.229940
f 15/15/15 5/5/5 10/10/10
vt -3.013160 -2.957060
f 16/16/16 2/2/2 1/1/1
vt 0.500000 -1.281580
vt 0.500000 -3.010820
f 17/17/17 2/2/2 18/18/18
vt 2.256580 -1.308450
vt 4.013160 -1.282280
f 8/8/8 19/19/19 20/20/20
vt -1.256580 0.474540
f 21/21/21 3/3/3 2/2/2
vt -1.256580 -2.983940
f 22/22/22 18/18/18 2/2/2
f 9/9/9 3/3/3 21/21/21
f 10/10/10 9/9/9 15/15/15
f 14/14/14 10/10/10 5/5/5
f 19/19/19 8/8/8 7/7/7
vt 0.500000 0.447660
f 15/15/15 9/9/9 23/23/23
f 23/23/23 5/5/5 15/15/15
f 23/23/23 2/2/2 17/17/17
f 2/2/2 23/23/23 21/21/21
f 21/21/21 23/23/23 9/9/9
f 7/7/7 23/23/23 19/19/19
f 5/5/5 23/23/23 7/7/7
f 11/11/11 13/13/13 9/9/9
vt 4.013160 -3.064570
f 20/20/20 19/19/19 24/24/24
vt 2.256580 -3.037690
f 25/25/25 24/24/24 19/19/19
f 19/19/19 18/18/18 25/25/25
f 6/6/6 5/5/5 8/8/8
f 2/2/2 16/16/16 22/22/22
f 18/18/18 19/19/19 17/17/17
f 3/3/3 9/9/9 12/12/12
f 17/17/17 19/19/19 23/23/23
# 32 faces, 25 coords texture

# End of File
